<svg xmlns="http://www.w3.org/2000/svg" id="canvas" viewBox="617.187 295.415 755.720 411.695"><path d="M 650.32,299.91 C 649.69 301.92, 650.09 304.32, 650.12 309.94 C 650.14 315.55, 650.67 319.32, 650.44 327.99 C 650.21 336.65, 649.80 342.07, 648.96 353.26 C 648.11 364.44, 647.79 370.86, 646.22 383.89 C 644.66 396.92, 643.45 404.48, 641.12 418.40 C 638.79 432.32, 637.16 439.91, 634.59 453.49 C 632.03 467.08, 630.59 473.96, 628.31 486.33 C 626.03 498.70, 624.76 504.85, 623.19 515.34 C 621.63 525.83, 620.98 530.54, 620.50 538.78 C 620.02 547.02, 620.07 550.45, 620.80 556.55 C 621.53 562.66, 621.96 565.22, 624.17 569.32 C 626.39 573.42, 627.86 574.95, 631.86 577.05 C 635.86 579.15, 638.45 579.46, 644.19 579.82 C 649.93 580.19, 653.25 579.65, 660.57 578.86 C 667.88 578.08, 671.94 577.24, 680.76 575.90 C 689.57 574.56, 694.70 573.82, 704.66 572.18 C 714.62 570.54, 720.82 569.31, 730.54 567.69 C 740.26 566.07, 745.68 565.36, 753.26 564.08 C 760.83 562.80, 765.46 562.32, 768.40 561.29 C 771.35 560.26, 771.07 558.83, 767.96 558.93 C 764.86 559.03, 760.43 560.50, 752.87 561.78 C 745.30 563.07, 739.87 563.74, 730.15 565.35 C 720.43 566.96, 714.24 568.26, 704.28 569.85 C 694.33 571.44, 689.19 572.13, 680.38 573.31 C 671.58 574.48, 667.46 575.16, 660.27 575.73 C 653.09 576.31, 649.78 576.59, 644.45 576.17 C 639.11 575.76, 637.05 575.36, 633.59 573.66 C 630.14 571.95, 629.18 571.15, 627.18 567.65 C 625.17 564.16, 624.45 561.93, 623.56 556.18 C 622.67 550.42, 622.43 547.00, 622.72 538.89 C 623.02 530.77, 623.59 526.06, 625.03 515.60 C 626.47 505.15, 627.71 498.99, 629.93 486.62 C 632.15 474.26, 633.59 467.37, 636.14 453.78 C 638.70 440.19, 640.34 432.60, 642.71 418.66 C 645.08 404.73, 646.31 397.16, 648.00 384.11 C 649.68 371.07, 650.08 364.64, 651.12 353.44 C 652.16 342.23, 652.73 336.80, 653.18 328.10 C 653.63 319.39, 653.37 315.57, 653.38 309.93 C 653.39 304.30, 653.84 301.92, 653.23 299.92 C 652.62 297.92, 650.94 297.91, 650.32 299.91" style="stroke: black; fill: black;"/><path d="M 927.12,463.94 C 927.18 462.58, 927.22 461.00, 925.30 458.96 C 923.39 456.92, 921.44 455.66, 917.53 453.73 C 913.63 451.81, 911.26 450.42, 905.76 449.33 C 900.26 448.23, 897.08 448.00, 890.04 448.25 C 883.00 448.50, 878.70 448.77, 870.56 450.57 C 862.42 452.37, 857.84 453.50, 849.35 457.23 C 840.86 460.97, 836.03 463.69, 828.12 469.23 C 820.21 474.78, 815.81 478.05, 809.79 484.96 C 803.78 491.88, 801.12 496.02, 798.04 503.82 C 794.96 511.63, 794.37 516.40, 794.40 523.99 C 794.44 531.57, 795.30 535.56, 798.21 541.73 C 801.11 547.91, 803.42 551.16, 808.93 554.87 C 814.43 558.58, 818.14 559.68, 825.74 560.30 C 833.34 560.91, 837.98 560.08, 846.94 557.95 C 855.89 555.83, 861.25 554.13, 870.51 549.67 C 879.77 545.21, 884.81 541.80, 893.23 535.65 C 901.65 529.51, 905.81 525.97, 912.61 518.95 C 919.41 511.92, 922.78 507.88, 927.23 500.53 C 931.68 493.17, 933.52 489.13, 934.85 482.18 C 936.17 475.24, 935.66 471.56, 933.85 465.80 C 932.04 460.04, 929.95 457.28, 925.81 453.38 C 921.67 449.49, 916.02 447.12, 913.15 446.33 C 910.29 445.55, 909.38 447.56, 911.47 449.45 C 913.56 451.35, 919.69 452.35, 923.60 455.80 C 927.50 459.26, 929.27 461.54, 931.00 466.72 C 932.73 471.90, 933.40 475.18, 932.24 481.70 C 931.08 488.22, 929.46 492.17, 925.22 499.32 C 920.98 506.47, 917.70 510.52, 911.05 517.44 C 904.40 524.36, 900.27 527.88, 891.97 533.92 C 883.66 539.96, 878.65 543.30, 869.54 547.63 C 860.42 551.96, 855.09 553.56, 846.38 555.56 C 837.66 557.56, 833.14 558.22, 825.96 557.62 C 818.79 557.01, 815.55 555.95, 810.51 552.53 C 805.46 549.11, 803.44 546.25, 800.74 540.54 C 798.04 534.83, 797.10 531.13, 797.01 523.96 C 796.91 516.80, 797.38 512.20, 800.28 504.70 C 803.19 497.20, 805.71 493.20, 811.54 486.48 C 817.37 479.77, 821.69 476.54, 829.45 471.14 C 837.21 465.75, 842.00 463.07, 850.33 459.50 C 858.67 455.94, 863.18 454.89, 871.14 453.31 C 879.09 451.73, 883.37 451.56, 890.09 451.61 C 896.81 451.65, 899.81 452.11, 904.74 453.54 C 909.66 454.98, 911.46 456.70, 914.72 458.77 C 917.97 460.85, 918.95 462.53, 921.00 463.93 C 923.06 465.32, 923.76 465.75, 924.98 465.76 C 926.20 465.76, 927.05 465.30, 927.12 463.94" style="stroke: black; fill: black;"/><path d="M 1076.07,458.65 C 1076.15 457.39, 1075.97 456.08, 1074.33 454.33 C 1072.69 452.58, 1071.40 451.04, 1067.86 449.89 C 1064.32 448.74, 1061.60 448.29, 1056.63 448.57 C 1051.67 448.86, 1049.01 449.38, 1043.02 451.30 C 1037.02 453.22, 1033.52 454.50, 1026.66 458.18 C 1019.81 461.85, 1015.70 464.40, 1008.74 469.67 C 1001.77 474.94, 997.89 478.52, 991.84 484.52 C 985.79 490.52, 982.80 493.90, 978.48 499.65 C 974.17 505.40, 972.13 508.32, 970.26 513.27 C 968.40 518.21, 967.76 521.14, 969.16 524.39 C 970.56 527.63, 972.86 529.01, 977.25 529.48 C 981.65 529.94, 984.80 528.91, 991.13 526.72 C 997.47 524.53, 1001.63 522.66, 1008.93 518.54 C 1016.24 514.42, 1020.40 511.53, 1027.67 506.13 C 1034.94 500.73, 1038.80 497.33, 1045.28 491.52 C 1051.77 485.71, 1054.65 482.30, 1060.08 477.07 C 1065.51 471.85, 1068.04 469.22, 1072.42 465.40 C 1076.81 461.58, 1079.16 460.09, 1082.01 457.97 C 1084.85 455.85, 1085.37 455.09, 1086.65 454.81 C 1087.93 454.53, 1087.47 454.59, 1088.41 456.56 C 1089.35 458.54, 1090.38 459.77, 1091.34 464.67 C 1092.31 469.58, 1092.69 472.98, 1093.24 481.10 C 1093.79 489.22, 1094.11 494.52, 1094.11 505.26 C 1094.10 516.00, 1094.38 522.55, 1093.21 534.79 C 1092.03 547.02, 1090.98 553.91, 1088.23 566.44 C 1085.49 578.97, 1083.69 585.47, 1079.47 597.44 C 1075.26 609.41, 1072.73 615.46, 1067.17 626.30 C 1061.60 637.14, 1058.28 642.31, 1051.66 651.62 C 1045.03 660.93, 1041.51 665.39, 1034.06 672.86 C 1026.61 680.33, 1022.48 683.81, 1014.40 688.98 C 1006.32 694.15, 1002.02 696.18, 993.66 698.72 C 985.30 701.27, 980.77 701.85, 972.61 701.72 C 964.46 701.58, 960.07 699.94, 952.88 698.04 C 945.69 696.15, 941.99 694.46, 936.64 692.24 C 931.30 690.02, 928.51 687.55, 926.17 686.96 C 923.83 686.37, 923.08 687.72, 924.95 689.31 C 926.82 690.90, 930.08 692.65, 935.53 694.92 C 940.98 697.20, 944.79 698.86, 952.20 700.70 C 959.61 702.53, 964.17 704.08, 972.59 704.11 C 981.01 704.13, 985.72 703.50, 994.30 700.81 C 1002.88 698.12, 1007.28 696.00, 1015.50 690.68 C 1023.72 685.35, 1027.88 681.79, 1035.40 674.18 C 1042.91 666.57, 1046.44 662.06, 1053.09 652.64 C 1059.75 643.22, 1063.08 638.00, 1068.67 627.07 C 1074.26 616.14, 1076.79 610.04, 1081.04 597.99 C 1085.29 585.94, 1087.11 579.42, 1089.92 566.82 C 1092.73 554.22, 1093.81 547.28, 1095.11 534.98 C 1096.41 522.67, 1096.17 516.09, 1096.41 505.29 C 1096.65 494.48, 1096.48 489.22, 1096.29 480.96 C 1096.11 472.70, 1096.22 469.38, 1095.48 463.99 C 1094.75 458.59, 1094.45 456.54, 1092.61 453.98 C 1090.77 451.43, 1088.91 451.09, 1086.29 451.21 C 1083.66 451.32, 1082.71 452.21, 1079.49 454.57 C 1076.28 456.92, 1074.48 458.89, 1070.21 463.00 C 1065.95 467.11, 1063.50 469.80, 1058.17 475.13 C 1052.85 480.46, 1050.00 483.86, 1043.59 489.63 C 1037.18 495.41, 1033.33 498.76, 1026.11 504.01 C 1018.89 509.26, 1014.69 512.01, 1007.47 515.88 C 1000.25 519.74, 995.99 521.39, 990.00 523.32 C 984.01 525.25, 980.97 525.61, 977.53 525.53 C 974.09 525.45, 973.60 525.13, 972.79 522.92 C 971.98 520.71, 971.89 518.79, 973.50 514.48 C 975.10 510.17, 976.79 506.99, 980.84 501.38 C 984.88 495.77, 987.82 492.33, 993.73 486.43 C 999.65 480.53, 1003.52 476.98, 1010.39 471.87 C 1017.26 466.77, 1021.34 464.29, 1028.08 460.90 C 1034.81 457.51, 1038.35 456.38, 1044.06 454.92 C 1049.78 453.46, 1052.34 453.32, 1056.64 453.59 C 1060.93 453.87, 1062.78 455.15, 1065.54 456.29 C 1068.29 457.43, 1068.74 458.40, 1070.41 459.28 C 1072.08 460.15, 1072.76 460.77, 1073.89 460.65 C 1075.02 460.52, 1075.98 459.91, 1076.07 458.65" style="stroke: black; fill: black;"/><path d="M 1176.83,443.79 C 1176.29 445.27, 1176.74 446.87, 1177.01 450.76 C 1177.28 454.64, 1178.02 457.38, 1178.18 463.21 C 1178.35 469.04, 1178.26 472.89, 1177.83 479.91 C 1177.40 486.92, 1176.70 490.96, 1176.03 498.27 C 1175.37 505.57, 1175.29 509.99, 1174.50 516.42 C 1173.71 522.84, 1172.77 525.84, 1172.09 530.40 C 1171.40 534.95, 1170.81 537.36, 1171.07 539.20 C 1171.34 541.04, 1172.53 541.26, 1173.41 539.61 C 1174.29 537.97, 1174.61 535.54, 1175.50 530.99 C 1176.38 526.43, 1177.10 523.30, 1177.85 516.82 C 1178.59 510.33, 1178.53 505.89, 1179.23 498.56 C 1179.93 491.24, 1180.72 487.25, 1181.35 480.17 C 1181.97 473.09, 1182.27 469.15, 1182.35 463.18 C 1182.43 457.20, 1182.25 454.25, 1181.73 450.28 C 1181.20 446.31, 1180.69 444.63, 1179.71 443.33 C 1178.73 442.04, 1177.37 442.30, 1176.83 443.79" style="stroke: black; fill: black;"/><path d="M 1199.63,334.11 C 1200.66 334.11, 1200.90 333.50, 1200.54 333.63 C 1200.18 333.75, 1198.33 334.52, 1197.83 334.75 C 1197.33 334.98, 1197.51 335.55, 1198.04 334.77 C 1198.56 334.00, 1200.39 331.93, 1200.45 330.86 C 1200.51 329.80, 1199.48 329.30, 1198.34 329.47 C 1197.20 329.63, 1195.33 330.87, 1194.74 331.71 C 1194.15 332.54, 1194.40 333.14, 1195.38 333.62 C 1196.35 334.10, 1198.60 334.11, 1199.63 334.11" style="stroke: black; fill: black;"/><path d="M 1342.19,432.06 C 1340.92 431.25, 1339.35 430.81, 1335.84 430.94 C 1332.32 431.07, 1330.15 431.35, 1324.62 432.72 C 1319.09 434.08, 1315.10 434.76, 1308.20 437.77 C 1301.31 440.79, 1297.39 443.10, 1290.15 447.79 C 1282.90 452.48, 1278.62 455.23, 1271.97 461.23 C 1265.33 467.23, 1261.81 471.02, 1256.92 477.79 C 1252.02 484.56, 1249.76 488.20, 1247.50 495.08 C 1245.23 501.96, 1244.50 505.60, 1245.61 512.20 C 1246.71 518.80, 1248.39 522.27, 1253.02 528.08 C 1257.66 533.89, 1261.31 536.93, 1268.80 541.25 C 1276.29 545.57, 1280.82 547.39, 1290.48 549.68 C 1300.14 551.98, 1306.79 552.21, 1317.09 552.71 C 1327.39 553.22, 1333.74 552.83, 1341.98 552.21 C 1350.23 551.60, 1353.25 550.61, 1358.33 549.66 C 1363.42 548.70, 1365.13 548.33, 1367.41 547.46 C 1369.68 546.59, 1369.33 545.94, 1369.70 545.31 C 1370.08 544.68, 1369.93 544.53, 1369.29 544.32 C 1368.65 544.10, 1368.82 543.83, 1366.50 544.26 C 1364.18 544.69, 1362.64 545.39, 1357.69 546.47 C 1352.74 547.54, 1349.86 548.85, 1341.76 549.63 C 1333.67 550.41, 1327.35 550.82, 1317.20 550.38 C 1307.05 549.93, 1300.45 549.68, 1291.02 547.42 C 1281.59 545.15, 1277.24 543.28, 1270.06 539.07 C 1262.88 534.87, 1259.49 531.86, 1255.14 526.40 C 1250.79 520.93, 1249.32 517.84, 1248.30 511.74 C 1247.28 505.65, 1247.89 502.40, 1250.03 495.91 C 1252.17 489.43, 1254.27 485.86, 1259.00 479.30 C 1263.73 472.74, 1267.16 468.97, 1273.68 463.14 C 1280.21 457.31, 1284.48 454.60, 1291.64 450.15 C 1298.80 445.70, 1302.72 443.54, 1309.49 440.89 C 1316.27 438.24, 1320.17 437.86, 1325.52 436.90 C 1330.86 435.93, 1332.89 436.46, 1336.22 436.08 C 1339.56 435.70, 1340.99 435.79, 1342.19 434.99 C 1343.38 434.18, 1343.46 432.87, 1342.19 432.06" style="stroke: black; fill: black;"/></svg>